<?xml version="1.0" standalone="no"?><!DOCTYPE svg PUBLIC "-//W3C//DTD SVG 1.1//EN" "http://www.w3.org/Graphics/SVG/1.1/DTD/svg11.dtd"><svg t="1680942851177" class="icon" viewBox="0 0 1024 1024" version="1.1" xmlns="http://www.w3.org/2000/svg" p-id="2185" width="32" height="32" xmlns:xlink="http://www.w3.org/1999/xlink"><path d="M266.622942 667.807578c27.710109 13.487176 57.219189 16.874319 87.606267 14.361079 3.733021-0.306992 6.67605-0.838088 7.754614 4.311189 3.403516 16.222473 12.164041 23.613814 28.613688 25.535583 13.706163 1.599428 27.431769 0.787946 41.148166 0.86367 5.618974 0.030699 8.289804-2.774183 8.454556-8.41567 0.191358-6.5246 0.158612-13.063527 0.035816-19.593244-0.127913-6.817266-2.659573-9.188266-9.642614-9.233292-7.870248-0.053212-15.742543 0.032746-23.613814-0.050142-2.616594-0.026606-5.378497 0.301875-7.952112-1.766226 1.147126-1.983167 2.982938-2.094708 4.430916-2.828418 17.404392-8.836249 29.739325-21.457708 29.777187-42.283012 0.141216-76.876901 0.089028-153.754826 0.028653-230.632751-0.01228-14.887059-6.311753-26.730805-18.033725-35.892465-8.949836-7.001461-19.396769-10.413164-30.125111-13.234419-25.838482-6.794753-52.074006-6.429433-78.314647-3.6399-14.059204 1.496074-27.7756 5.201465-39.98876 12.573363-15.971763 9.640568-25.858948 22.906709-25.775037 42.854017 0.311085 75.368548 0.183172 150.740166 0.082888 226.110761C241.086335 645.965108 249.746576 659.592476 266.622942 667.807578zM313.779961 404.813792c0-2.670829-0.01228-5.395894 0.49221-7.997138 1.063215-5.489014 4.231371-9.435906 9.671267-11.190877 8.673543-2.794649 17.47807-2.920516 26.214035-0.479931 6.592139 1.842974 9.333576 5.430686 9.66615 12.408611 0.265036 5.513574 0.13917 11.045567 0.13917 16.569374 0.010233 32.981159 0.004093 65.963341 0.004093 98.9445-0.002047 36.665061 0.008186 73.329099-0.004093 109.99416-0.00614 13.960966-3.62762 18.144242-17.579377 19.789719-7.395434 0.87288-14.721283 0.500397-21.370727-3.52222-4.330632-2.620687-6.600325-6.55223-7.063883-11.522428-0.200568-2.161223-0.182149-4.348028-0.182149-6.522554C313.759495 549.129642 313.757448 476.971206 313.779961 404.813792z" p-id="2186" fill="#00dc5a"></path><path d="M132.619972 328.946894c20.436448-0.042979 40.871873-0.106424 61.309344 0.048095 4.427846 0.033769 6.071276-1.570775 6.644327-5.987365 2.451842-18.8493 11.310603-33.082466 30.011524-39.767725 5.856381-2.093684 11.895935-3.470031 18.029632-4.412496 62.11264-9.54233 124.627439-14.725376 187.399087-16.923438 22.750143-0.797156 45.533033-0.268106 68.302619-0.923022 17.721617-0.506537 35.483142 0.292666 53.226249 0.649799 11.039427 0.222057 22.086018 0.403183 33.128515 0.733711 36.82879 1.102101 73.535807 3.761674 110.172215 7.500834 25.478278 2.600221 50.918693 5.624091 76.157517 10.037611 25.308409 4.426823 38.588877 18.193361 42.085514 43.597961 0.604774 4.39203 2.541893 5.502317 6.551206 5.478781 20.436448-0.112564 40.871873-0.150426 61.309344 0.023536 4.767584 0.040932 6.210445-1.824555 5.776563-6.311753-1.102101-11.338233-2.335185-22.644743-5.14109-33.719986-8.612145-33.965579-28.610618-56.087413-63.819514-64.039525-32.906457-7.43125-66.165955-12.093433-99.615788-15.773242-24.452925-2.690272-48.972365-4.572132-73.510224-6.345522-28.882817-2.088568-57.789171-3.635807-86.71906-4.539386-18.071587-0.565888-36.178991-0.106424-54.270021-0.106424-30.302143-0.068562-60.609403-0.38374-90.876754 1.77032-19.693528 1.400906-39.446407 1.977028-59.134819 3.432169-30.202882 2.233877-60.373019 4.915963-90.411149 8.834202-27.393907 3.573385-54.67832 7.66968-81.412195 15.032368-24.543999 6.759961-40.532135 22.579251-50.29243 45.382607-7.013741 16.385179-9.210779 33.831526-10.595312 51.414997C126.582465 328.366679 129.181663 328.95508 132.619972 328.946894z" p-id="2187" fill="#00dc5a"></path><path d="M887.342062 698.827059c-20.258393 0.324388-40.520879 0.659009-60.775178 0.592494-4.7727-0.01535-6.133697 1.476631-6.825452 6.076392-2.188852 14.548344-7.433296 27.493168-21.264303 35.157731-7.576559 4.197602-15.69854 6.753821-24.180725 8.080026-46.667879 7.294127-93.612051 12.165064-140.742465 15.021112-25.723871 1.557472-51.498908 2.617617-77.260641 2.948145-30.970362 0.399089-61.948911 0.210801-92.934622-0.343831-41.199331-0.737804-82.296331-2.639107-123.32784-6.330172-31.351032-2.820232-62.61406-6.411013-93.684706-11.437493-10.603499-1.715061-20.857027-4.861728-29.420053-12.034081-10.220782-8.56098-13.870916-20.214391-15.760962-32.691563-0.448208-2.957355-1.191128-4.544503-4.586458-4.403287-14.234189 0.599657-28.442796-1.280156-40.901549-0.567935-8.986675 0-16.187681 0.033769-23.390733-0.014326-3.434216-0.022513-4.814656 1.570775-4.581342 4.975315 1.130753 16.607236 3.39226 33.024138 9.461489 48.622394 9.41237 24.194028 25.675776 41.062208 51.387367 48.202838 23.473621 6.520507 47.39852 10.467399 71.448262 13.755282 47.444569 6.486738 95.17771 9.93221 142.937456 13.021571 33.42732 2.162246 66.919109 2.483564 100.382245 2.787486 34.640961 0.315178 69.301366-0.215918 103.902418-2.51631 19.200294-1.277086 38.442544-1.984191 57.628512-3.433192 29.363771-2.220574 58.690704-4.937452 87.902002-8.738012 27.243481-3.544733 54.333466-7.751544 80.871889-15.168468 23.989367-6.705726 39.436174-22.560832 49.134047-44.646849 7.095605-16.150842 9.215896-33.477462 10.764158-50.879807C893.950574 700.04684 891.710556 698.755428 887.342062 698.827059z" p-id="2188" fill="#00dc5a"></path><path d="M736.938564 509.999436c17.520025-48.677653 35.057447-97.351212 52.524261-146.049331 2.910283-8.110725 0.245593-11.875468-8.311293-11.911284-17.919115-0.070608-35.83823-0.061398-53.760414 0.005117-6.867408 0.024559-8.366551 1.14508-10.451026 7.762801-6.592139 20.920472-13.170974 41.84606-19.62292 62.811558-4.418636 14.366196-8.614192 28.800953-13.265118 44.397163-0.754177-2.601244-1.13894-3.867074-1.493004-5.14109-9.462512-34.220383-20.275789-68.031443-30.944779-101.884458-2.089591-6.628978-3.789303-7.906064-10.413164-7.934716-18.253736-0.080841-36.509519-0.106424-54.765301 0.008186-7.816013 0.049119-10.589173 4.246721-7.964392 11.501962 2.506077 6.928806 5.021364 13.852496 7.519254 20.784372 16.96437 47.104831 33.507138 94.369298 51.092655 141.241838 7.158027 19.071358 11.564383 37.96773 10.707876 58.560744-1.101077 26.414603-0.300852 52.912094-0.243547 79.373769 0.01842 9.104355 2.288113 11.293207 11.235902 11.299347 16.916275 0.011256 33.833573 0.011256 50.747801 0 9.090029-0.00614 10.541077-1.440815 10.543124-10.457166 0.010233-33.830503 0.013303-67.662029-0.008186-101.493555-0.002047-3.365654 0.174985-6.655584 1.350764-9.881045C726.634894 538.679639 731.779054 524.33698 736.938564 509.999436z" p-id="2189" fill="#00dc5a"></path><path d="M537.833877 352.018356c-16.417925-0.013303-32.833803-0.01228-49.251727 0-10.070356 0.00614-12.033058 1.969864-12.036128 12.05557-0.008186 49.755194-0.002047 99.510388-0.002047 149.265582 0.002047 50.258661-0.01228 100.516298 0.013303 150.774959 0.005117 8.498558 2.267647 10.697643 10.760065 10.708899 16.918321 0.01842 33.838689 0.010233 50.760081 0.002047 9.859555-0.002047 11.799744-1.90028 11.80486-11.689227 0.016373-31.327496 0.008186-62.656015 0.008186-93.982488-0.00307-68.350714 0.005117-136.702452-0.011256-205.053166C549.877167 354.037339 547.832601 352.024495 537.833877 352.018356z" p-id="2190" fill="#00dc5a"></path><path d="M883.827005 352.023472c-16.914228-0.030699-33.82948-0.021489-50.743708-0.005117-9.078773 0.00921-10.911514 1.826602-10.914584 10.847046-0.008186 50.242288-0.00307 100.484575-0.00307 150.726863 0 50.41011-0.005117 100.818173 0.00614 151.228283 0.002047 8.209986 1.771343 9.981329 10.066263 9.996678 17.247826 0.031722 34.498722 0.021489 51.749618 0.00614 8.5487-0.008186 10.667967-2.073218 10.667967-10.706853 0.021489-100.483552 0.021489-200.969151 0.00307-301.452703C894.655631 354.217441 892.406404 352.040868 883.827005 352.023472z" p-id="2191" fill="#00dc5a"></path><path d="M134.55095 674.761967c18.925025 0.115634 37.85005 0.044002 56.776098 0.039909 4.668323-0.002047 7.105838-2.518357 7.603165-6.992251 0.223081-1.988284 0.166799-4.01443 0.166799-6.021134 0.008186-33.330106 0.00614-66.659189 0.00614-99.988272 0-34.166147 0.016373-68.332295-0.013303-102.499465-0.005117-8.292873-1.730411-9.959839-10.069333-9.969049-17.417695-0.017396-34.836413-0.016373-52.254108 0-8.673543 0.00921-10.1645 1.51961-10.1645 10.3006-0.007163 39.86187-0.005117 79.722716-0.002047 119.583562 0 28.806069-0.01842 57.613162 0.01842 86.421278C126.626467 672.235424 128.66694 674.725128 134.55095 674.761967z" p-id="2192" fill="#00dc5a"></path><path d="M126.644887 417.044348c0.062422 5.426593 2.654456 8.195659 7.976672 8.227382 18.591427 0.113587 37.181831 0.115634 55.773258 0 5.990434-0.037862 8.612145-2.683109 8.647961-8.694009 0.109494-18.591427 0.109494-37.182854 0-55.774281-0.033769-6.0416-2.622734-8.68173-8.613168-8.719592-18.424628-0.11768-36.848233-0.125867-55.270814 0.014326-6.16235 0.046049-8.478092 2.577708-8.53335 8.673543-0.080841 9.210779-0.021489 18.423605-0.01842 27.635407C126.610094 397.951501 126.530276 407.498948 126.644887 417.044348z" p-id="2193" fill="#00dc5a"></path></svg>