<?xml version="1.0" standalone="no"?><!DOCTYPE svg PUBLIC "-//W3C//DTD SVG 1.1//EN" "http://www.w3.org/Graphics/SVG/1.1/DTD/svg11.dtd"><svg t="1680944355755" class="icon" viewBox="0 0 1107 1024" version="1.1" xmlns="http://www.w3.org/2000/svg" p-id="2153" width="28.107421875" height="26" xmlns:xlink="http://www.w3.org/1999/xlink"><path d="M587.7685 475.803L379.2985 317.52c-27.023-23.163-50.187-11.581-50.187 27.024v347.45c0 34.744 23.164 46.326 50.187 23.162l208.47-158.282c23.163-15.442 27.024-42.466 15.442-61.769-3.86-11.581-7.721-15.442-15.442-19.302z" fill="#fe8814" p-id="2154"></path><path d="M1058.7555 406.313C842.5635 197.843 560.7455 74.306 390.8795 8.677c-73.35-27.024-154.422 11.581-181.446 81.071-3.86 7.721-3.86 15.442-7.72 23.163v15.442c158.282 50.188 413.078 146.701 609.966 301.123 42.466 30.884 54.047 92.653 23.163 135.12-7.721 11.58-15.442 19.302-27.024 23.162-185.306 131.259-389.915 235.494-606.106 304.983l3.86 11.582c11.583 77.211 84.933 127.398 162.144 115.816 11.581 0 19.303-3.86 30.884-7.72 239.354-96.514 463.266-231.633 660.153-401.497 57.909-50.187 65.63-138.98 15.443-196.888-7.721 0-11.582-3.86-15.443-7.721z" fill="#fe8814" p-id="2155"></path><path d="M205.5745 128.353h-3.86c-77.212-23.163-158.283 15.443-169.865 81.072-42.466 200.748-42.466 405.357 0 606.106C47.2925 881.16 132.2255 923.626 205.5755 896.602h3.86c-46.326-254.796-46.326-513.453-3.86-768.249z" fill="#fe8814" p-id="2156"></path></svg>