<?xml version="1.0" standalone="no"?><!DOCTYPE svg PUBLIC "-//W3C//DTD SVG 1.1//EN" "http://www.w3.org/Graphics/SVG/1.1/DTD/svg11.dtd"><svg t="1680943625424" class="icon" viewBox="0 0 1024 1024" version="1.1" xmlns="http://www.w3.org/2000/svg" p-id="7366" xmlns:xlink="http://www.w3.org/1999/xlink" width="32" height="32"><path d="M304.340888 465.034433c-14.767302-22.645721-29.210217-45.499173-43.798441-68.25848-0.489139 0-0.977255 0-1.466395 0-37.800855 63.016093-75.602734 126.031163-113.670672 189.49137 18.062342 10.06829 34.773922 19.376264 52.216141 29.09663 5.47877-11.508079 10.761066-22.398081 15.838702-33.378135 1.710965-3.699245 3.892649-5.36109 8.30923-5.475701 24.637071-0.639565 49.268002-1.609657 73.89177-2.670824 4.465699-0.191358 7.087405 1.27606 9.299788 5.218851 6.883767 12.280673 14.170716 24.335196 21.688932 37.137754 18.589343-11.155039 36.630195-21.987736 54.879802-32.941184-1.257641-2.178615-2.023072-3.675709-2.940976-5.070472C353.839133 540.469345 328.985122 502.818915 304.340888 465.034433zM233.824999 536.334173c8.345045-17.467802 16.102714-33.706616 24.557253-51.402614 8.444306 16.854843 16.112947 32.161426 24.41706 48.735884C266.116385 534.576136 250.872223 535.406036 233.824999 536.334173z" p-id="7367" fill="#fd4c5d"></path><path d="M845.740417 469.007923c0 21.404453 0 42.385258 0 65.649055-31.212823-23.302682-60.923436-45.4828-92.045185-68.721014-2.479466 45.013103-4.848415 87.985738-7.258296 131.713571 12.564128 0 24.171467 0 36.627126 0 0-21.242771 0-42.497821 0-64.361738 30.26115 23.086765 59.699564 45.532942 90.818244 69.270528 2.68515-45.871655 5.231131-89.381525 7.81702-133.551425C869.598753 469.007923 857.799033 469.007923 845.740417 469.007923z" p-id="7368" fill="#fd4c5d"></path><path d="M732.773778 467.80861c-14.15639 0-27.393852 0-40.261902 0 0 9.670224 0.187265 18.698837-0.037862 27.714146-0.484023 19.268817-0.577144 38.57652-2.036375 57.778822-0.768501 10.113315-8.294903 16.169229-17.331702 16.945917-10.887956 0.939393-18.612879-3.660359-22.119743-13.995731-1.708918-5.027493-3.042283-10.438726-3.16201-15.707719-0.468673-20.746468-0.388856-41.507263-0.504489-62.263965-0.018419-2.58282-0.004093-5.167686-0.004093-7.966423-13.821769 0-26.919039 0-40.116593 0 0 24.736331-1.41523 48.760443 0.324387 72.552264 2.79976 38.296135 22.718376 56.490482 59.474437 57.377687 31.833969 0.771571 55.073206-15.696462 61.886365-44.948635C735.602191 526.442915 731.759683 497.058736 732.773778 467.80861z" p-id="7369" fill="#fd4c5d"></path><path d="M501.785378 596.8708c15.992197 0 31.491162 0 47.629692 0 0-18.453244 0-36.408138 0-55.011808 14.891122 0 29.142679 0 43.198785 0 0-11.330024 0-21.977503 0-33.338226-7.545845 0.345877-14.329328 0.781804-21.118951 0.930183-7.059775 0.156566-14.12876 0.034792-21.903825 0.034792 0-10.790742 0-21.62958 0-33.65238 15.783443 0 31.066491 0 46.183763 0 0-12.495567 0-23.778519 0-35.642707-31.798153 1.138938-62.712172 2.243083-93.989463 3.364624C501.785378 495.020314 501.785378 545.90616 501.785378 596.8708z" p-id="7370" fill="#fd4c5d"></path><path d="M466.74949 566.782588c-8.390071-1.06219-17.208906-1.494024-24.938946-4.512771-17.804469-6.953352-22.439013-24.799776-9.601663-39.009378 6.421234-7.104801 15.701579-12.03201 24.419107-16.526362 6.701619-3.455698 14.544222-4.697989 22.053228-6.978934-2.627845-11.261462-5.15029-22.068577-7.894792-33.841692-8.750274 2.671847-16.781165 4.653987-24.459016 7.563241-23.309845 8.829068-43.83528 21.541576-56.646025 43.885422-13.382772 23.344638-10.226902 47.58876 9.165735 63.506256 24.932806 20.464036 54.377359 20.845729 85.039645 17.854611-0.668218-11.333093-1.280153-21.721677-1.87367-31.827829C476.406412 566.893105 471.507855 567.385314 466.74949 566.782588z" p-id="7371" fill="#fd4c5d"></path></svg>