<!-- <?xml version="1.0" standalone="no"?><!DOCTYPE svg PUBLIC "-//W3C//DTD SVG 1.1//EN" "http://www.w3.org/Graphics/SVG/1.1/DTD/svg11.dtd"><svg t="1682585858422" class="icon" viewBox="0 0 1024 1024" version="1.1" xmlns="http://www.w3.org/2000/svg" p-id="3243" width="24" height="24" xmlns:xlink="http://www.w3.org/1999/xlink"><path d="M128 42.666667c-47.36 0-85.333333 37.973333-85.333333 85.333333v597.333333c0 47.36 37.973333 85.333333 85.333333 85.333334h512L384 42.666667H128m398.506667 170.666666L554.666667 298.666667h341.333333v597.333333h-367.786667l27.733334 85.333333H896c47.36 0 85.333333-37.973333 85.333333-85.333333V298.666667c0-47.36-37.973333-85.333333-85.333333-85.333334h-369.493333m-225.28 38.826667c46.933333 0 86.613333 17.066667 116.053333 46.506667L369.493333 342.613333c-12.373333-12.373333-33.706667-26.453333-68.266666-26.453333-59.306667 0-106.666667 48.64-106.666667 107.946667s47.36 109.226667 106.666667 109.226666c69.12 0 93.866667-49.92 98.986666-74.666666H301.226667V400.213333h162.986666c2.133333 9.813333 2.56 16.64 2.56 29.013334 0 98.986667-66.56 168.106667-165.546666 168.106666A172.8 172.8 0 0 1 128 424.106667c0-96.426667 77.226667-171.946667 173.226667-171.946667M682.666667 426.666667v42.666666h-70.826667l13.653333 42.666667H768c-11.52 26.026667-15.786667 49.92-50.773333 90.88-17.066667-20.053333-30.72-37.546667-34.56-48.213333h-42.666667c5.12 18.346667 26.453333 46.933333 52.053333 75.946666-5.546667 5.546667-13.226667 12.8-20.053333 18.773334l11.946667 35.84c10.666667-9.386667 21.333333-19.2 32-29.013334 43.52 45.653333 89.6 87.893333 89.6 87.893334l23.893333-25.6s-45.653333-44.8-86.613333-89.173334c26.88-29.866667 50.773333-66.133333 67.84-117.333333h42.666666v-42.666667h-128v-42.666666h-42.666666z" fill="" p-id="3244"></path></svg> -->
<svg t="1683195320973" class="icon" viewBox="0 0 1024 1024" version="1.1" xmlns="http://www.w3.org/2000/svg" p-id="2925" width="22" height="22"><path d="M853.333333 213.333333H464.213333L426.666667 85.333333H170.666667C123.733333 85.333333 85.333333 123.733333 85.333333 170.666667v554.666666c0 46.933333 38.4 85.333333 85.333334 85.333334h298.666666l42.666667 128h341.333333c46.933333 0 85.333333-38.4 85.333334-85.333334V298.666667c0-46.933333-38.4-85.333333-85.333334-85.333334zM305.706667 622.293333c-96.213333 0-174.293333-78.293333-174.293334-174.293333s78.293333-174.293333 174.293334-174.293333c44.373333 0 84.693333 15.786667 116.693333 45.44l2.773333 2.773333-52.053333 50.346667-2.56-2.346667c-12.16-11.52-33.28-24.96-64.853333-24.96-55.893333 0-101.333333 46.293333-101.333334 103.253333s45.44 103.253333 101.333334 103.253334c58.453333 0 83.84-37.333333 90.666666-62.293334h-94.293333v-66.133333h168.533333l0.64 2.986667c1.706667 8.96 2.346667 16.853333 2.346667 25.813333-0.213333 100.48-69.12 170.453333-167.893333 170.453333z m257.493333-72.533333c14.293333 25.6 31.573333 50.133333 50.773333 72.533333l-22.826666 22.613334-27.946667-95.146667z m32.853333-32.853333h-42.24l-13.013333-44.373334h170.453333s-14.506667 56.106667-66.56 116.693334a339.669333 339.669333 0 0 1-48.64-72.32zM896 853.333333c0 23.466667-19.2 42.666667-42.666667 42.666667H554.666667l85.333333-85.333333-34.773333-117.973334 39.253333-39.253333L759.04 768l31.146667-31.146667-115.413334-114.56c38.4-44.16 68.266667-96 81.706667-149.546666H810.666667v-44.373334h-155.093334V384h-44.373333v44.373333h-83.626667L476.8 256H853.333333c23.466667 0 42.666667 19.2 42.666667 42.666667v554.666666z" p-id="2926" fill="#909399"></path></svg>