<?xml version="1.0" standalone="no"?><!DOCTYPE svg PUBLIC "-//W3C//DTD SVG 1.1//EN" "http://www.w3.org/Graphics/SVG/1.1/DTD/svg11.dtd"><svg t="1682585858422" class="icon" viewBox="0 0 1024 1024" version="1.1" xmlns="http://www.w3.org/2000/svg" p-id="3243" width="24" height="24" xmlns:xlink="http://www.w3.org/1999/xlink"><path d="M128 42.666667c-47.36 0-85.333333 37.973333-85.333333 85.333333v597.333333c0 47.36 37.973333 85.333333 85.333333 85.333334h512L384 42.666667H128m398.506667 170.666666L554.666667 298.666667h341.333333v597.333333h-367.786667l27.733334 85.333333H896c47.36 0 85.333333-37.973333 85.333333-85.333333V298.666667c0-47.36-37.973333-85.333333-85.333333-85.333334h-369.493333m-225.28 38.826667c46.933333 0 86.613333 17.066667 116.053333 46.506667L369.493333 342.613333c-12.373333-12.373333-33.706667-26.453333-68.266666-26.453333-59.306667 0-106.666667 48.64-106.666667 107.946667s47.36 109.226667 106.666667 109.226666c69.12 0 93.866667-49.92 98.986666-74.666666H301.226667V400.213333h162.986666c2.133333 9.813333 2.56 16.64 2.56 29.013334 0 98.986667-66.56 168.106667-165.546666 168.106666A172.8 172.8 0 0 1 128 424.106667c0-96.426667 77.226667-171.946667 173.226667-171.946667M682.666667 426.666667v42.666666h-70.826667l13.653333 42.666667H768c-11.52 26.026667-15.786667 49.92-50.773333 90.88-17.066667-20.053333-30.72-37.546667-34.56-48.213333h-42.666667c5.12 18.346667 26.453333 46.933333 52.053333 75.946666-5.546667 5.546667-13.226667 12.8-20.053333 18.773334l11.946667 35.84c10.666667-9.386667 21.333333-19.2 32-29.013334 43.52 45.653333 89.6 87.893333 89.6 87.893334l23.893333-25.6s-45.653333-44.8-86.613333-89.173334c26.88-29.866667 50.773333-66.133333 67.84-117.333333h42.666666v-42.666667h-128v-42.666666h-42.666666z" fill="" p-id="3244"></path></svg>